<svg width="36" height="36" viewBox="0 0 36 36" fill="none" xmlns="http://www.w3.org/2000/svg">
<g clip-path="url(#clip0_186_5603)">
<path d="M24.447 12.432L26.553 14.5695L17.8635 23.13C17.283 23.7105 16.5195 24 15.753 24C14.9865 24 14.2155 23.7075 13.629 23.1225L9.456 19.0785L11.5455 16.923L15.735 20.9835L24.447 12.432ZM36 18C36 27.9255 27.9255 36 18 36C8.0745 36 0 27.9255 0 18C0 8.0745 8.0745 0 18 0C27.9255 0 36 8.0745 36 18ZM33 18C33 9.729 26.271 3 18 3C9.729 3 3 9.729 3 18C3 26.271 9.729 33 18 33C26.271 33 33 26.271 33 18Z" fill="white"/>
</g>
<defs>
<clipPath id="clip0_186_5603">
<rect width="36" height="36" fill="white"/>
</clipPath>
</defs>
</svg>
