<svg width="30" height="30" viewBox="0 0 30 30" fill="none" xmlns="http://www.w3.org/2000/svg">
<g clip-path="url(#clip0_186_5559)">
<path d="M18.0175 0H6.25C5.25544 0 4.30161 0.395088 3.59835 1.09835C2.89509 1.80161 2.5 2.75544 2.5 3.75V30H27.5V9.4825L18.0175 0ZM18.75 4.2675L23.2325 8.75H18.75V4.2675ZM5 27.5V3.75C5 3.41848 5.1317 3.10054 5.36612 2.86612C5.60054 2.6317 5.91848 2.5 6.25 2.5H16.25V11.25H25V27.5H5ZM16.25 17.5H20V20H16.25V23.75H13.75V20H10V17.5H13.75V13.75H16.25V17.5Z" fill="#F3F8FA"/>
</g>
<defs>
<clipPath id="clip0_186_5559">
<rect width="30" height="30" fill="white"/>
</clipPath>
</defs>
</svg>
