<svg width="82" height="89" viewBox="0 0 82 89" fill="none" xmlns="http://www.w3.org/2000/svg">
<path opacity="0.4" d="M73.44 3.72885C68.3973 3.72885 63.3546 3.72885 58.3118 3.72885C53.1647 3.72885 45.2727 2.24606 42.3383 7.70077C41.0486 10.1024 40.9174 14.5095 41.855 17.0909C42.4039 18.6053 43.6647 19.5387 44.0558 20.9316C44.4419 22.3074 44.0558 24.3833 44.0558 25.7907C44.0558 26.9114 44.5683 29.3616 44.0558 30.3072C43.1983 31.8944 44.2573 30.3266 42.0882 31.4545C39.7175 32.6869 37.3734 33.9339 35.0464 35.2781C35.0464 30.4068 36.2318 25.1612 31.9105 21.972C28.4637 19.4294 22.0533 14.879 17.6689 16.1624C14.2804 17.1542 8.24416 20.4503 5.84911 23.1072C3.05084 26.2088 3.833 34.5003 4.30666 38.3531C4.93822 43.4845 11.4991 45.9105 15.6115 48.1054C17.9944 49.3767 19.6048 49.9213 22.3327 48.9149C23.897 48.3388 26.1924 45.6916 27.8126 45.7306C29.6174 45.7743 31.3566 47.7262 31.602 49.1361C32.0902 51.9607 30.1178 52.2183 27.9438 53.4847C22.3546 56.7372 22.5925 60.048 22.5925 66.0569C22.5925 68.7429 22.0218 72.214 23.7172 74.4966C25.2767 76.5944 28.5851 77.8292 30.776 79.0957C32.8262 80.2819 35.469 82.4283 37.9612 82.4307C40.6599 82.4331 43.5092 80.0437 45.7391 78.753C53.1064 93.9989 76.3986 89.7206 78.1597 73.0138C78.8568 66.4118 78.2374 59.4622 78.2374 52.8407C78.2374 43.3022 78.2374 33.7662 78.2374 24.2277C78.2374 23.2651 77.9848 21.8237 78.2374 20.8927C78.6819 19.2519 80.2341 18.2139 80.7029 16.3325C82.0219 11.0286 79.9499 3.72885 73.44 3.72885Z" fill="#1C619E"/>
<path d="M70.525 0.811855C65.4822 0.811855 60.4395 0.811855 55.3968 0.811855C50.2496 0.811855 42.3576 -0.67093 39.4234 4.78378C38.1335 7.1854 38.0023 11.5924 38.94 14.174C39.4889 15.6883 40.7496 16.6218 41.1407 18.0146C41.5269 19.3904 41.1407 21.4663 41.1407 22.8738C41.1407 23.9943 41.6532 26.4446 41.1407 27.3902C40.2832 28.9775 41.3423 27.4096 39.1732 28.5375C36.8024 29.77 34.4584 31.017 32.1313 32.3612C32.1313 27.4899 33.3167 22.2442 28.9954 19.055C25.5486 16.5123 19.1383 11.9619 14.7539 13.2454C11.3653 14.2371 5.33155 17.5333 2.93408 20.1901C0.135803 23.2919 0.917959 31.5833 1.39163 35.4336C2.02318 40.5651 8.58405 42.991 12.6965 45.1861C15.0793 46.4574 16.6899 47.0019 19.4176 45.9955C20.982 45.4194 23.2774 42.7722 24.8976 42.8111C26.7024 42.8549 28.4416 44.8068 28.6869 46.2167C29.1751 49.0412 27.2027 49.299 25.0288 50.5654C19.4395 53.8177 19.6776 57.1285 19.6776 63.1374C19.6776 65.8235 19.1067 69.2946 20.8022 71.5772C22.3616 73.6749 25.67 74.9098 27.861 76.1762C29.9112 77.3625 32.5539 79.5088 35.0462 79.5113C37.7448 79.5137 40.5941 77.1243 42.824 75.8335C50.1913 91.0794 73.4836 86.8013 75.2446 70.0943C75.9418 63.4924 75.3224 56.5427 75.3224 49.9212C75.3224 40.3828 75.3224 30.8468 75.3224 21.3084C75.3224 20.3457 75.0698 18.9043 75.3224 17.9733C75.7669 16.3325 77.319 15.2945 77.7879 13.4131C79.1068 8.11153 77.0348 0.811855 70.525 0.811855Z" fill="white"/>
<path d="M41.1576 67.4155C41.9593 67.4155 42.6102 66.7641 42.6102 65.962V59.1485C42.6102 58.3462 41.9593 57.6948 41.1576 57.6948C40.3561 57.6948 39.7051 58.3462 39.7051 59.1485V65.962C39.7051 66.7641 40.3561 67.4155 41.1576 67.4155ZM40.2347 59.1485C40.2347 58.6379 40.6476 58.2247 41.1576 58.2247C41.6678 58.2247 42.0807 58.6379 42.0807 59.1485V65.962C42.0807 66.4724 41.6678 66.8857 41.1576 66.8857C40.6476 66.8857 40.2347 66.4724 40.2347 65.962V59.1485Z" fill="black"/>
<path d="M28.9736 57.6948C28.172 57.6948 27.521 58.3462 27.521 59.1485V65.962C27.521 66.7641 28.172 67.4155 28.9736 67.4155C29.7751 67.4155 30.4286 66.7641 30.4286 65.962V59.1485C30.4286 58.3462 29.7751 57.6948 28.9736 57.6948ZM29.899 65.962C29.899 66.4724 29.4861 66.8857 28.976 66.8857C28.4659 66.8857 28.0529 66.4724 28.0529 65.962V59.1485C28.0529 58.6379 28.4659 58.2247 28.976 58.2247C29.4861 58.2247 29.899 58.6379 29.899 59.1485V65.962Z" fill="black"/>
<path d="M8.54761 25.0248V29.7551V34.4854L16.7359 39.2133L24.9219 34.4854V29.7551V25.0248L16.7359 20.2944L8.54761 25.0248ZM24.3923 29.7551V34.1791L16.7359 38.6007L9.07957 34.1791V29.7551V25.331L16.7359 20.907L24.3923 25.331V29.7551Z" fill="black"/>
<path d="M35.9573 41.9554V51.4136L44.1456 56.1415L46.5237 54.7681C46.5237 49.8555 46.5237 44.1553 46.5237 38.5961L44.1456 37.2227L35.9573 41.9554ZM45.9941 54.4643L44.1456 55.5314L36.4868 51.1097V42.2641L44.1456 37.8401L45.9941 38.9072V54.4643Z" fill="black"/>
<path d="M26.8799 57.8237V62.554V67.2843L35.0682 72.0122L43.2541 67.2843V62.554V57.8237L35.0682 53.0933L26.8799 57.8237ZM42.7222 62.554V66.978L35.0657 71.3997L27.4094 66.978V62.554V58.1299L35.0657 53.7059L42.7222 58.1299V62.554Z" fill="black"/>
<path d="M70.5251 5.64893H45.9697C44.4807 5.64893 43.2662 6.86432 43.2662 8.35683V10.0487V11.7405C43.2662 13.233 44.4783 14.4484 45.9697 14.4484H45.9916V21.1404V35.4894L44.4078 34.5754C44.3252 34.5268 44.2354 34.5049 44.1431 34.5049C44.0508 34.5049 43.9609 34.5292 43.8783 34.5754L35.0049 39.6995L34.2714 39.2741C34.4609 39.3641 34.6698 39.4151 34.886 39.4151C35.141 39.4151 35.3912 39.347 35.6122 39.2206L41.5075 35.8151C41.8428 35.6206 42.0832 35.307 42.1853 34.9327C42.2849 34.5584 42.2338 34.1646 42.0396 33.8291C41.7796 33.3795 41.2986 33.1023 40.7788 33.1023C40.5262 33.1023 40.2736 33.1704 40.0525 33.2968L34.1572 36.7023C33.4626 37.1034 33.2245 37.9955 33.6253 38.6907C33.7322 38.8778 33.8804 39.0335 34.0528 39.1525L27.3461 35.2803V29.7599V23.9285C27.3461 23.7389 27.2441 23.5639 27.0814 23.4691L17.0009 17.6425C16.9183 17.5939 16.8284 17.572 16.736 17.572C16.6438 17.572 16.5539 17.5963 16.4713 17.6425L6.38586 23.4691C6.22068 23.5639 6.12109 23.7389 6.12109 23.9285V29.7552V35.5817C6.12109 35.7713 6.22311 35.9464 6.38586 36.0411L16.4713 41.8677C16.5539 41.914 16.6438 41.9383 16.736 41.9383C16.8284 41.9383 16.9183 41.914 17.0009 41.8677L24.922 37.2906L33.5282 42.2615V51.1778L24.7155 56.2678C24.5528 56.3626 24.4508 56.5376 24.4508 56.7272V62.5539V68.3805C24.4508 68.57 24.5528 68.7451 24.7155 68.8399L34.8009 74.6665C34.8835 74.7126 34.9734 74.7369 35.0657 74.7369C35.158 74.7369 35.2479 74.7126 35.3305 74.6665L45.4135 68.8399C45.5787 68.7451 45.6782 68.57 45.6782 68.3805V62.5539V58.0617L45.9891 57.8818V68.4534C45.9891 75.2232 51.4885 80.7313 58.2462 80.7313C65.0038 80.7313 70.5032 75.2232 70.5032 68.4534V21.1404V14.4484H70.5227C72.0141 14.4484 73.2286 13.233 73.2286 11.7405V10.0487V8.35683C73.231 6.86432 72.0165 5.64893 70.5251 5.64893ZM34.4244 37.1594L40.3197 33.7537C40.4655 33.6687 40.6234 33.6299 40.7813 33.6299C41.0995 33.6299 41.4104 33.7951 41.5829 34.0917C41.8379 34.5341 41.6874 35.098 41.2452 35.3532L35.3499 38.7588C35.2042 38.8439 35.0462 38.8827 34.8884 38.8827C34.5702 38.8827 34.2592 38.7175 34.0892 38.4209C33.8318 37.9785 33.9848 37.4145 34.4244 37.1594ZM69.9761 21.1404C69.9761 35.9609 69.9761 68.4315 69.9761 68.4534C69.9761 74.9436 64.7269 80.2014 58.2511 80.2014C51.7752 80.2014 46.5236 74.9436 46.5236 68.4534C46.5236 68.4121 46.5236 63.655 46.5236 56.963L45.1512 57.7554V62.5539V68.3805L35.0681 74.2071L24.9827 68.3805V62.5539V56.7296L34.0601 51.4864V41.9577L24.9244 36.6804L16.7385 41.4108L6.65062 35.5817V29.7552V23.9285L16.736 18.1019L26.8191 23.9285V29.7552V35.5817L35.0074 40.3096L44.1455 35.0323L46.5236 36.4057C46.5236 30.6739 46.5236 25.2338 46.5236 21.1379C46.5236 17.8709 46.5236 15.4596 46.5236 14.446H69.9785C69.9761 15.4621 69.9761 17.8734 69.9761 21.1404ZM72.7015 10.0487V11.7405C72.7015 12.9414 71.725 13.9185 70.5251 13.9185H70.5057C70.5057 13.6244 70.2676 13.3885 69.9761 13.3885H46.5212C46.2297 13.3885 45.9916 13.6268 45.9916 13.9185H45.9697C44.7698 13.9185 43.7982 12.9414 43.7982 11.7405V10.0487V8.35683C43.7982 7.15116 44.7698 6.17884 45.9697 6.17884H70.5251C71.725 6.17884 72.7015 7.15116 72.7015 8.35683V10.0487Z" fill="black"/>
<path d="M15.9394 21.5101L10.0441 24.9157C9.70881 25.1101 9.46832 25.4237 9.36631 25.7981C9.26672 26.1724 9.31773 26.5638 9.51205 26.9016C9.77199 27.3514 10.253 27.6308 10.7728 27.6308C11.0253 27.6308 11.278 27.5628 11.4991 27.4364L17.3944 24.0309C18.0866 23.6298 18.3271 22.7377 17.9263 22.0449C17.6688 21.5976 17.1855 21.3181 16.6681 21.3181C16.4106 21.3132 16.1604 21.3813 15.9394 21.5101ZM17.4648 22.305C17.7198 22.7475 17.5692 23.3137 17.1271 23.569L11.2318 26.9746C11.086 27.0597 10.9282 27.0985 10.7703 27.0985C10.4521 27.0985 10.1412 26.9333 9.96869 26.6367C9.71366 26.1943 9.86424 25.6303 10.3064 25.3751L16.2041 21.9695C16.3499 21.8845 16.5077 21.8456 16.6656 21.8456C16.9838 21.8431 17.2947 22.0109 17.4648 22.305Z" fill="black"/>
<path d="M46.5237 13.9185C46.5237 13.9185 46.5237 68.3148 46.5237 68.4533C46.5237 74.9435 51.7753 80.2014 58.2511 80.2014C64.727 80.2014 69.9762 74.9435 69.9762 68.4533C69.9762 68.4242 69.9762 13.9185 69.9762 13.9185H46.5237Z" fill="#97C1FF"/>
<path d="M35.0682 74.2074L24.9827 68.3808V62.5542H26.8798V67.2845L35.0682 72.0148L43.2516 67.2845V62.5542H45.1512V68.3808L35.0682 74.2074Z" fill="#9537DD"/>
<path d="M40.2349 59.1483C40.2349 58.6378 40.6478 58.2246 41.1579 58.2246C41.668 58.2246 42.0809 58.6378 42.0809 59.1483V65.9618C42.0809 66.4723 41.668 66.8856 41.1579 66.8856C40.6478 66.8856 40.2349 66.4723 40.2349 65.9618V59.1483Z" fill="#FFFF98"/>
<path d="M28.053 59.1483C28.053 58.6378 28.466 58.2246 28.9761 58.2246C29.4861 58.2246 29.8992 58.6378 29.8992 59.1483V65.9618C29.8992 66.4723 29.4861 66.8856 28.9761 66.8856C28.466 66.8856 28.053 66.4723 28.053 65.9618V59.1483Z" fill="#FFFF98"/>
<path d="M69.9786 13.9185H46.5237V21.1403H69.9786V13.9185Z" fill="#7BB7FF"/>
<path d="M66.1745 50.0283H50.325C50.325 50.0283 50.325 68.1985 50.325 68.2909C50.325 72.676 53.8738 76.2299 58.2509 76.2299C62.6281 76.2299 66.1745 72.676 66.1745 68.2909C66.1745 68.2009 66.1745 50.0283 66.1745 50.0283Z" fill="#FFFF98"/>
<path d="M63.6898 50.6431C63.6898 52.7457 61.9846 54.4496 59.8834 54.4496C57.7823 54.4496 56.0771 52.7457 56.0771 50.6431C56.0771 48.5404 57.7823 46.834 59.8834 46.834C61.9846 46.834 63.6898 48.5404 63.6898 50.6431Z" fill="#FFFF98"/>
<path d="M68.4118 44.1602C68.4118 45.3951 67.4086 46.399 66.1746 46.399C64.9407 46.399 63.9375 45.3975 63.9375 44.1602C63.9375 42.9253 64.9407 41.9238 66.1746 41.9238C67.4111 41.9238 68.4118 42.9253 68.4118 44.1602Z" fill="#FFFF98"/>
<path d="M62.1205 39.2671C62.1205 40.5043 61.1174 41.5058 59.8834 41.5058C58.6495 41.5058 57.6462 40.5043 57.6462 39.2671C57.6462 38.0322 58.647 37.0308 59.8834 37.0308C61.1198 37.0283 62.1205 38.0322 62.1205 39.2671Z" fill="#FFFF98"/>
<path d="M59.7182 29.7309C59.7182 30.5427 59.0599 31.2015 58.2486 31.2015C57.4373 31.2015 56.7791 30.5427 56.7791 29.7309C56.7791 28.919 57.4373 28.2603 58.2486 28.2603C59.0624 28.2603 59.7182 28.919 59.7182 29.7309Z" fill="#FFFF98"/>
<path d="M72.7014 10.0488V11.7407C72.7014 12.9415 71.725 13.9187 70.525 13.9187H45.9696C44.7697 13.9187 43.7981 12.9415 43.7981 11.7407V10.0488H72.7014Z" fill="#438EE8"/>
<path d="M72.7014 8.35964V10.0515H43.7981V8.35964C43.7981 7.15396 44.7697 6.18164 45.9696 6.18164H70.525C71.7274 6.18164 72.7014 7.15396 72.7014 8.35964Z" fill="#97C1FF"/>
<path d="M56.6333 24.0405H48.2822V26.5734H56.6333V24.0405Z" fill="#515150"/>
<path d="M52.9995 32.8325H48.2822V35.3679H52.9995V32.8325Z" fill="#515150"/>
<path d="M56.6333 41.6274H48.2822V44.1603H56.6333V41.6274Z" fill="#515150"/>
<path d="M35.9572 41.9556H34.0576V52.5125H35.9572V41.9556Z" fill="#9537DD"/>
<path d="M24.922 29.7553H26.8216V23.9286L16.736 18.1021L6.65063 23.9286V29.7553H8.55016V25.025L16.7385 20.2947L24.9244 25.025V29.7553H24.922Z" fill="#9537DD"/>
<path d="M44.1455 37.2252L46.5236 38.5986V36.4084L44.1455 35.0326L35.0074 40.3098L26.8216 35.582V29.7554H24.922V34.4857L16.736 39.2136L8.54772 34.4857V29.7554H6.65063V35.582L16.736 41.4085L24.922 36.6782L34.0601 41.9579V51.4842L24.9827 56.7299V62.5541H26.8798V57.8238L35.0681 53.0958L43.2516 57.8238V62.5541H45.1512V57.7556L46.5236 56.9633V54.7706L44.1455 56.144L35.9572 51.4162V41.9579L44.1455 37.2252Z" fill="#9537DD"/>
<path d="M16.204 21.9693C16.6461 21.7142 17.2096 21.8649 17.4646 22.3073C17.7197 22.7497 17.5691 23.316 17.1271 23.5713L11.2316 26.9768C10.7896 27.2321 10.2261 27.0814 9.97099 26.6389C9.71596 26.1965 9.86654 25.6326 10.3087 25.3773L16.204 21.9693Z" fill="#FFFF98"/>
<path d="M35.3474 38.759C34.9053 39.0143 34.3418 38.8636 34.0867 38.4212C33.8317 37.9788 33.9823 37.4124 34.4244 37.1596L40.3197 33.754C40.7617 33.4988 41.3253 33.6496 41.5804 34.092C41.8354 34.5344 41.6848 35.0983 41.2427 35.3535L35.3474 38.759Z" fill="#FFFF98"/>
</svg>
